{
  "accessors": [
    {
      "bufferView": 2,
      "componentType": 5126,
      "count": 3698,
      "max": [
        10.37019157409668,
        85.39978790283203,
        45.39713668823242
      ],
      "min": [
        -36.7440071105957,
        -29.646812438964844,
        -26.756967544555664
      ],
      "type": "VEC3"
    },
    {
      "bufferView": 2,
      "byteOffset": 44376,
      "componentType": 5126,
      "count": 3698,
      "max": [
        1.0,
        1.0,
        1.0
      ],
      "min": [
        -1.0,
        -0.9999469518661499,
        -1.0
      ],
      "type": "VEC3"
    },
    {
      "bufferView": 1,
      "componentType": 5126,
      "count": 3698,
      "max": [
        1.000000238418579,
        1.0
      ],
      "min": [
        -8.940696716308594e-08,
        0.0
      ],
      "type": "VEC2"
    },
    {
      "bufferView": 0,
      "componentType": 5125,
      "count": 5472,
      "type": "SCALAR"
    },
    {
      "bufferView": 2,
      "byteOffset": 88752,
      "componentType": 5126,
      "count": 1876,
      "max": [
        6.566405296325684,
        84.95425415039063,
        121.57257843017578
      ],
      "min": [
        -32.855831146240234,
        -38.42803192138672,
        -16.959108352661133
      ],
      "type": "VEC3"
    },
    {
      "bufferView": 2,
      "byteOffset": 111264,
      "componentType": 5126,
      "count": 1876,
      "max": [
        1.0,
        1.0,
        1.0
      ],
      "min": [
        -1.0,
        -1.0,
        -1.0
      ],
      "type": "VEC3"
    },
    {
      "bufferView": 1,
      "byteOffset": 29584,
      "componentType": 5126,
      "count": 1876,
      "max": [
        1.0,
        1.0
      ],
      "min": [
        0.01000000536441803,
        0.0
      ],
      "type": "VEC2"
    },
    {
      "bufferView": 0,
      "byteOffset": 21888,
      "componentType": 5125,
      "count": 3186,
      "type": "SCALAR"
    },
    {
      "bufferView": 2,
      "byteOffset": 133776,
      "componentType": 5126,
      "count": 224,
      "max": [
        -12.394333839416504,
        83.07154083251953,
        121.57257843017578
      ],
      "min": [
        -14.058960914611816,
        -38.128807067871094,
        33.57181930541992
      ],
      "type": "VEC3"
    },
    {
      "bufferView": 2,
      "byteOffset": 136464,
      "componentType": 5126,
      "count": 224,
      "max": [
        1.0,
        0.8296484351158142,
        6.908124419169326e-07
      ],
      "min": [
        -1.0,
        -0.8148584961891174,
        -0.5796604752540588
      ],
      "type": "VEC3"
    },
    {
      "bufferView": 1,
      "byteOffset": 44592,
      "componentType": 5126,
      "count": 224,
      "max": [
        0.875,
        1.0
      ],
      "min": [
        0.375,
        0.0
      ],
      "type": "VEC2"
    },
    {
      "bufferView": 0,
      "byteOffset": 34632,
      "componentType": 5125,
      "count": 336,
      "type": "SCALAR"
    },
    {
      "bufferView": 2,
      "byteOffset": 139152,
      "componentType": 5126,
      "count": 370,
      "max": [
        2.729376792907715,
        44.78570556640625,
        12.493051528930664
      ],
      "min": [
        -28.701557159423828,
        0.4420166015625,
        3.3717846870422363
      ],
      "type": "VEC3"
    },
    {
      "bufferView": 2,
      "byteOffset": 143592,
      "componentType": 5126,
      "count": 370,
      "max": [
        1.0,
        0.9958699345588684,
        1.0
      ],
      "min": [
        -1.0,
        -0.9958698749542236,
        -1.0
      ],
      "type": "VEC3"
    },
    {
      "bufferView": 1,
      "byteOffset": 46384,
      "componentType": 5126,
      "count": 370,
      "max": [
        0.5923092365264893,
        0.7457924485206604
      ],
      "min": [
        0.5005292892456055,
        0.004212464205920696
      ],
      "type": "VEC2"
    },
    {
      "bufferView": 0,
      "byteOffset": 35976,
      "componentType": 5125,
      "count": 558,
      "type": "SCALAR"
    },
    {
      "bufferView": 2,
      "byteOffset": 148032,
      "componentType": 5126,
      "count": 64,
      "max": [
        2.2868576049804688,
        44.029205322265625,
        12.18899154663086
      ],
      "min": [
        -28.194473266601563,
        0.9582061767578125,
        3.6758346557617188
      ],
      "type": "VEC3"
    },
    {
      "bufferView": 2,
      "byteOffset": 148800,
      "componentType": 5126,
      "count": 64,
      "max": [
        1.0,
        0.9803968667984009,
        0.19703510403633118
      ],
      "min": [
        -1.0,
        -2.261561462546524e-07,
        -8.343963600054849e-07
      ],
      "type": "VEC3"
    },
    {
      "bufferView": 1,
      "byteOffset": 49344,
      "componentType": 5126,
      "count": 64,
      "max": [
        0.589249849319458,
        0.7413829565048218
      ],
      "min": [
        0.5035887956619263,
        0.007032971829175949
      ],
      "type": "VEC2"
    },
    {
      "bufferView": 0,
      "byteOffset": 38208,
      "componentType": 5125,
      "count": 96,
      "type": "SCALAR"
    },
    {
      "bufferView": 2,
      "byteOffset": 149568,
      "componentType": 5126,
      "count": 757,
      "max": [
        8.098745346069336,
        84.95425415039063,
        11.488227844238281
      ],
      "min": [
        -34.25584030151367,
        -30.925582885742188,
        -12.882129669189453
      ],
      "type": "VEC3"
    },
    {
      "bufferView": 2,
      "byteOffset": 158652,
      "componentType": 5126,
      "count": 757,
      "max": [
        0.9905527234077454,
        0.8323501944541931,
        0.9999998211860657
      ],
      "min": [
        -0.9905509352684021,
        -0.9988551139831543,
        -0.554274320602417
      ],
      "type": "VEC3"
    },
    {
      "bufferView": 1,
      "byteOffset": 49856,
      "componentType": 5126,
      "count": 757,
      "max": [
        0.875,
        1.0
      ],
      "min": [
        0.4999999403953552,
        -0.04842507466673851
      ],
      "type": "VEC2"
    },
    {
      "bufferView": 0,
      "byteOffset": 38592,
      "componentType": 5125,
      "count": 1146,
      "type": "SCALAR"
    },
    {
      "bufferView": 2,
      "byteOffset": 167736,
      "componentType": 5126,
      "count": 548,
      "max": [
        5.188615322113037,
        80.88277435302734,
        -4.092287063598633
      ],
      "min": [
        -31.349761962890625,
        -26.78692626953125,
        -26.765287399291992
      ],
      "type": "VEC3"
    },
    {
      "bufferView": 2,
      "byteOffset": 174312,
      "componentType": 5126,
      "count": 548,
      "max": [
        0.9923714399337769,
        0.5999853610992432,
        -0.06908340752124786
      ],
      "min": [
        -0.9923877716064453,
        -0.9105813503265381,
        -0.9999867677688599
      ],
      "type": "VEC3"
    },
    {
      "bufferView": 1,
      "byteOffset": 55912,
      "componentType": 5126,
      "count": 548,
      "max": [
        0.47967490553855896,
        1.0
      ],
      "min": [
        0.1249999925494194,
        0.0
      ],
      "type": "VEC2"
    },
    {
      "bufferView": 0,
      "byteOffset": 43176,
      "componentType": 5125,
      "count": 822,
      "type": "SCALAR"
    },
    {
      "bufferView": 2,
      "byteOffset": 180888,
      "componentType": 5126,
      "count": 220,
      "max": [
        4.683256149291992,
        81.77891540527344,
        12.764530181884766
      ],
      "min": [
        -30.843212127685547,
        -28.01549530029297,
        -9.1370210647583
      ],
      "type": "VEC3"
    },
    {
      "bufferView": 2,
      "byteOffset": 183528,
      "componentType": 5126,
      "count": 220,
      "max": [
        1.0,
        0.9995344877243042,
        0.9999983310699463
      ],
      "min": [
        -1.0,
        -0.9999095797538757,
        -0.09079524129629135
      ],
      "type": "VEC3"
    },
    {
      "bufferView": 1,
      "byteOffset": 60296,
      "componentType": 5126,
      "count": 220,
      "max": [
        0.8700810670852661,
        0.8744722604751587
      ],
      "min": [
        0.3768293261528015,
        0.5042552947998047
      ],
      "type": "VEC2"
    },
    {
      "bufferView": 0,
      "byteOffset": 46464,
      "componentType": 5125,
      "count": 330,
      "type": "SCALAR"
    },
    {
      "bufferView": 2,
      "byteOffset": 186168,
      "componentType": 5126,
      "count": 906,
      "max": [
        -11.892407417297363,
        22.795080184936523,
        133.3645477294922
      ],
      "min": [
        -14.266974449157715,
        -38.42803955078125,
        8.343303680419922
      ],
      "type": "VEC3"
    },
    {
      "bufferView": 2,
      "byteOffset": 197040,
      "componentType": 5126,
      "count": 906,
      "max": [
        0.9951856136322021,
        0.9951862096786499,
        1.0
      ],
      "min": [
        -0.9951857924461365,
        -1.0,
        -0.9951833486557007
      ],
      "type": "VEC3"
    },
    {
      "bufferView": 1,
      "byteOffset": 62056,
      "componentType": 5126,
      "count": 906,
      "max": [
        1.0,
        1.0
      ],
      "min": [
        0.0,
        0.01000000536441803
      ],
      "type": "VEC2"
    },
    {
      "bufferView": 0,
      "byteOffset": 47784,
      "componentType": 5125,
      "count": 1518,
      "type": "SCALAR"
    },
    {
      "bufferView": 2,
      "byteOffset": 207912,
      "componentType": 5126,
      "count": 900,
      "max": [
        -16.62363052368164,
        8.674507141113281,
        37.672603607177734
      ],
      "min": [
        -21.652393341064453,
        3.5263404846191406,
        7.082385540008545
      ],
      "type": "VEC3"
    },
    {
      "bufferView": 2,
      "byteOffset": 218712,
      "componentType": 5126,
      "count": 900,
      "max": [
        0.9951886534690857,
        0.9951883554458618,
        1.0
      ],
      "min": [
        -0.9951873421669006,
        -0.9951888918876648,
        -5.550588866753969e-06
      ],
      "type": "VEC3"
    },
    {
      "bufferView": 1,
      "byteOffset": 69304,
      "componentType": 5126,
      "count": 900,
      "max": [
        1.0,
        1.0
      ],
      "min": [
        0.0,
        0.028268888592720032
      ],
      "type": "VEC2"
    },
    {
      "bufferView": 0,
      "byteOffset": 53856,
      "componentType": 5125,
      "count": 1368,
      "type": "SCALAR"
    }
  ],
  "asset": {
    "extras": {
      "author": "Kenepin (https://sketchfab.com/santiagokkenneth614)",
      "license": "CC-BY-4.0 (http://creativecommons.org/licenses/by/4.0/)",
      "source": "https://sketchfab.com/3d-models/low-poly-sailboat-fdf38588937242f5b85efc87e028a876",
      "title": "Low-Poly Sailboat"
    },
    "generator": "Sketchfab-12.66.0",
    "version": "2.0"
  },
  "bufferViews": [
    {
      "buffer": 0,
      "byteLength": 59328,
      "name": "floatBufferViews",
      "target": 34963
    },
    {
      "buffer": 0,
      "byteLength": 76504,
      "byteOffset": 59328,
      "byteStride": 8,
      "name": "floatBufferViews",
      "target": 34962
    },
    {
      "buffer": 0,
      "byteLength": 229512,
      "byteOffset": 135832,
      "byteStride": 12,
      "name": "floatBufferViews",
      "target": 34962
    }
  ],
  "buffers": [
    {
      "byteLength": 365344,
      "uri": "scene.bin"
    }
  ],
  "materials": [
    {
      "doubleSided": true,
      "name": "Black",
      "pbrMetallicRoughness": {
        "baseColorFactor": [
          0.0,
          0.0,
          0.0,
          1.0
        ],
        "metallicFactor": 0.0
      }
    },
    {
      "doubleSided": true,
      "name": "Default",
      "pbrMetallicRoughness": {
        "baseColorFactor": [
          0.8,
          0.8,
          0.8,
          1.0
        ],
        "metallicFactor": 0.0,
        "roughnessFactor": 0.8211145618000169
      }
    },
    {
      "doubleSided": true,
      "name": "Sails",
      "pbrMetallicRoughness": {
        "baseColorFactor": [
          0.783538,
          0.737911,
          0.623961,
          1.0
        ],
        "metallicFactor": 0.0,
        "roughnessFactor": 0.8346686868109605
      }
    },
    {
      "doubleSided": true,
      "name": "Light_Grey",
      "pbrMetallicRoughness": {
        "baseColorFactor": [
          0.147314,
          0.147314,
          0.147314,
          1.0
        ],
        "metallicFactor": 0.0,
        "roughnessFactor": 0.9670595881962596
      }
    },
    {
      "doubleSided": true,
      "name": "Window",
      "pbrMetallicRoughness": {
        "baseColorFactor": [
          0.0100219,
          0.0100219,
          0.0100219,
          1.0
        ],
        "metallicFactor": 0.0,
        "roughnessFactor": 0.9977590350336295
      }
    },
    {
      "doubleSided": true,
      "name": "Cyan",
      "pbrMetallicRoughness": {
        "baseColorFactor": [
          0.0,
          0.190899,
          0.310814,
          1.0
        ],
        "metallicFactor": 0.0,
        "roughnessFactor": 0.9644528392697277
      }
    },
    {
      "doubleSided": true,
      "name": "material",
      "pbrMetallicRoughness": {
        "baseColorFactor": [
          0.496924,
          0.00339364,
          0.0,
          1.0
        ],
        "metallicFactor": 0.0,
        "roughnessFactor": 0.9758341037000048
      }
    },
    {
      "doubleSided": true,
      "name": "Floor",
      "pbrMetallicRoughness": {
        "baseColorFactor": [
          0.533277,
          0.323143,
          0.147027,
          1.0
        ],
        "metallicFactor": 0.0,
        "roughnessFactor": 0.920596798314457
      }
    },
    {
      "doubleSided": true,
      "name": "Sail_Stick",
      "pbrMetallicRoughness": {
        "baseColorFactor": [
          0.102474,
          0.102474,
          0.102474,
          1.0
        ],
        "metallicFactor": 0.0,
        "roughnessFactor": 0.9770861170073687
      }
    },
    {
      "doubleSided": true,
      "name": "Antenna",
      "pbrMetallicRoughness": {
        "baseColorFactor": [
          0.334325,
          0.334325,
          0.334325,
          1.0
        ],
        "metallicFactor": 0.0,
        "roughnessFactor": 0.9252426573422383
      }
    }
  ],
  "meshes": [
    {
      "name": "Sphere_Black_0",
      "primitives": [
        {
          "attributes": {
            "NORMAL": 1,
            "POSITION": 0,
            "TEXCOORD_0": 2
          },
          "indices": 3,
          "material": 0,
          "mode": 4
        }
      ]
    },
    {
      "name": "Sphere_Default_0",
      "primitives": [
        {
          "attributes": {
            "NORMAL": 5,
            "POSITION": 4,
            "TEXCOORD_0": 6
          },
          "indices": 7,
          "material": 1,
          "mode": 4
        }
      ]
    },
    {
      "name": "Sphere_Sails_0",
      "primitives": [
        {
          "attributes": {
            "NORMAL": 9,
            "POSITION": 8,
            "TEXCOORD_0": 10
          },
          "indices": 11,
          "material": 2,
          "mode": 4
        }
      ]
    },
    {
      "name": "Sphere_Light Grey_0",
      "primitives": [
        {
          "attributes": {
            "NORMAL": 13,
            "POSITION": 12,
            "TEXCOORD_0": 14
          },
          "indices": 15,
          "material": 3,
          "mode": 4
        }
      ]
    },
    {
      "name": "Sphere_Window_0",
      "primitives": [
        {
          "attributes": {
            "NORMAL": 17,
            "POSITION": 16,
            "TEXCOORD_0": 18
          },
          "indices": 19,
          "material": 4,
          "mode": 4
        }
      ]
    },
    {
      "name": "Sphere_Cyan_0",
      "primitives": [
        {
          "attributes": {
            "NORMAL": 21,
            "POSITION": 20,
            "TEXCOORD_0": 22
          },
          "indices": 23,
          "material": 5,
          "mode": 4
        }
      ]
    },
    {
      "name": "Sphere_Red_0",
      "primitives": [
        {
          "attributes": {
            "NORMAL": 25,
            "POSITION": 24,
            "TEXCOORD_0": 26
          },
          "indices": 27,
          "material": 6,
          "mode": 4
        }
      ]
    },
    {
      "name": "Sphere_Floor_0",
      "primitives": [
        {
          "attributes": {
            "NORMAL": 29,
            "POSITION": 28,
            "TEXCOORD_0": 30
          },
          "indices": 31,
          "material": 7,
          "mode": 4
        }
      ]
    },
    {
      "name": "Sphere_Sail Stick_0",
      "primitives": [
        {
          "attributes": {
            "NORMAL": 33,
            "POSITION": 32,
            "TEXCOORD_0": 34
          },
          "indices": 35,
          "material": 8,
          "mode": 4
        }
      ]
    },
    {
      "name": "Sphere_Antenna_0",
      "primitives": [
        {
          "attributes": {
            "NORMAL": 37,
            "POSITION": 36,
            "TEXCOORD_0": 38
          },
          "indices": 39,
          "material": 9,
          "mode": 4
        }
      ]
    }
  ],
  "nodes": [
    {
      "children": [
        1
      ],
      "matrix": [
        1.0,
        0.0,
        0.0,
        0.0,
        0.0,
        2.220446049250313e-16,
        -1.0,
        0.0,
        0.0,
        1.0,
        2.220446049250313e-16,
        0.0,
        0.0,
        0.0,
        0.0,
        1.0
      ],
      "name": "Sketchfab_model"
    },
    {
      "children": [
        2
      ],
      "matrix": [
        1.0,
        0.0,
        0.0,
        0.0,
        0.0,
        0.0,
        1.0,
        0.0,
        0.0,
        -1.0,
        0.0,
        0.0,
        0.0,
        0.0,
        0.0,
        1.0
      ],
      "name": "655994b752dd4dba9865a065248c424e.fbx"
    },
    {
      "children": [
        3
      ],
      "name": "RootNode"
    },
    {
      "children": [
        4,
        5,
        6,
        7,
        8,
        9,
        10,
        11,
        12,
        13
      ],
      "matrix": [
        5.26488733291626,
        0.0,
        0.0,
        0.0,
        0.0,
        -8.577590212001643e-07,
        -5.2648873329161905,
        0.0,
        0.0,
        5.2648873329161905,
        -8.577590212001643e-07,
        0.0,
        68.863037109375,
        248.41464233398438,
        113.76264953613281,
        1.0
      ],
      "name": "Sphere"
    },
    {
      "mesh": 0,
      "name": "Sphere_Black_0"
    },
    {
      "mesh": 1,
      "name": "Sphere_Default_0"
    },
    {
      "mesh": 2,
      "name": "Sphere_Sails_0"
    },
    {
      "mesh": 3,
      "name": "Sphere_Light Grey_0"
    },
    {
      "mesh": 4,
      "name": "Sphere_Window_0"
    },
    {
      "mesh": 5,
      "name": "Sphere_Cyan_0"
    },
    {
      "mesh": 6,
      "name": "Sphere_Red_0"
    },
    {
      "mesh": 7,
      "name": "Sphere_Floor_0"
    },
    {
      "mesh": 8,
      "name": "Sphere_Sail Stick_0"
    },
    {
      "mesh": 9,
      "name": "Sphere_Antenna_0"
    }
  ],
  "scene": 0,
  "scenes": [
    {
      "name": "Sketchfab_Scene",
      "nodes": [
        0
      ]
    }
  ]
}
