<svg width="1176" height="400" viewBox="0 0 1176 400" fill="none" xmlns="http://www.w3.org/2000/svg">
<g clip-path="url(#clip0_371_1585)">
<g clip-path="url(#clip1_371_1585)">
<path d="M400 0H9.36323e-06V400H400V0Z" fill="black"/>
<g clip-path="url(#clip2_371_1585)">
<path d="M299.007 145.349C295.711 134.623 289.824 125.025 282.088 117.285C274.352 109.549 264.75 103.662 254.025 100.367C247.688 98.4164 240.968 97.3689 234.001 97.3689L165.997 97.3525C159.031 97.3525 152.311 98.4174 145.986 100.367C124.527 106.97 107.608 123.889 101.004 145.349C99.0545 151.686 97.9988 158.379 97.9988 165.347H164.224C157.886 165.51 151.761 166.561 145.974 168.342C129.45 173.436 115.599 184.652 107.101 199.347C104.575 203.723 102.51 208.403 101 213.326C99.0514 219.662 98.0029 226.382 98.0029 233.348C98.0029 240.315 99.0514 247.047 101 253.373C104.295 264.094 110.183 273.696 117.918 281.436C125.654 289.173 135.255 295.059 145.981 298.356C152.318 300.305 159.038 301.353 166.005 301.353H233.996V233.341L301.987 233.364V165.372H301.999C301.999 158.406 300.95 151.674 299.002 145.348H299.006L299.007 145.349ZM233.997 233.34H165.998V165.346H233.997V233.34Z" fill="#9EF357"/>
</g>
</g>
</g>
<path d="M487.162 301.289L566.405 97.4077H592.619L513.375 301.289H487.162Z" fill="black"/>
<path d="M791.702 301.289H764.324L748.887 261.386H643.743L628.306 301.289H600.637L679.568 97.4077H713.062L791.702 301.289ZM676.073 177.795L653.063 237.503H739.567L716.266 177.504C707.237 154.203 704.033 139.64 701.412 122.456H691.218C688.014 142.553 683.354 158.863 676.073 177.795Z" fill="black"/>
<path d="M829.475 120.126C818.407 120.126 810.834 113.136 810.834 102.068C810.834 91.2912 818.407 84.0098 829.475 84.0098C840.543 84.0098 848.116 91.2912 848.116 102.068C848.116 113.136 840.252 120.126 829.475 120.126ZM841.999 301.289H816.951V146.922H841.999V301.289Z" fill="black"/>
<path d="M1004.62 301.289H875.589V278.571L976.074 165.853L970.249 159.155C960.346 165.853 950.443 168.766 934.715 168.766H877.628V146.922H1002.87V169.64L902.677 282.357L908.21 289.056C916.657 282.066 927.434 279.444 943.744 279.444H1004.62V301.289Z" fill="black"/>
<path d="M1022.67 224.105C1022.67 176.63 1052.67 142.553 1100.73 142.553C1147.04 142.553 1175.29 175.174 1175.29 223.523V233.134H1048.01C1048.59 263.425 1069.56 284.687 1102.47 284.687C1125.48 284.687 1142.08 274.202 1152.86 259.348L1168.3 274.784C1154.61 294.59 1129.27 305.658 1101.89 305.658C1055.58 305.658 1022.67 274.493 1022.67 224.105ZM1048.3 213.911H1150.24C1149.07 183.329 1131.31 163.523 1101.02 163.523C1071.02 163.523 1049.76 181.29 1048.3 213.911Z" fill="black"/>
<defs>
<clipPath id="clip0_371_1585">
<rect width="400" height="400" rx="56" fill="white"/>
</clipPath>
<clipPath id="clip1_371_1585">
<rect width="400" height="400" fill="white"/>
</clipPath>
<clipPath id="clip2_371_1585">
<rect width="204" height="204" fill="white" transform="translate(97.9968 97.3525)"/>
</clipPath>
</defs>
</svg>
